<svg xmlns="http://www.w3.org/2000/svg" width="18.021" height="18.021" viewBox="0 0 18.021 18.021"><defs><style>.a{fill:#fff;}</style></defs><path class="a" d="M9.01,0a9.01,9.01,0,1,0,9.01,9.01A9.02,9.02,0,0,0,9.01,0ZM9.7,14.209a.693.693,0,0,1-1.386,0v-.693a.693.693,0,0,1,1.386,0Zm1-5.695a2.3,2.3,0,0,0-1,1.938v.985a.693.693,0,1,1-1.386,0v-.985a3.65,3.65,0,0,1,1.631-3.1,1.726,1.726,0,0,0,.795-1.482A1.765,1.765,0,0,0,9.035,4.159a1.648,1.648,0,0,0-1.241.5,1.722,1.722,0,0,0-.516,1.234.693.693,0,1,1-1.386,0A3.119,3.119,0,0,1,9.01,2.772h.045a3.14,3.14,0,0,1,3.074,3.074A3.1,3.1,0,0,1,10.7,8.514Z"/></svg>