<svg xmlns="http://www.w3.org/2000/svg" width="18.168" height="18.168" viewBox="0 0 18.168 18.168"><defs><style>.a{fill:#fff;}</style></defs><path class="a" d="M17.765,7.5l-2.084-.513A6.879,6.879,0,0,0,15.2,5.846l.97-1.617a.532.532,0,0,0-.08-.65L14.585,2.074a.531.531,0,0,0-.65-.08l-1.62.97a6.857,6.857,0,0,0-1.138-.477L10.665.4a.532.532,0,0,0-.516-.4H8.02A.532.532,0,0,0,7.5.4s-.355,1.455-.512,2.083A6.833,6.833,0,0,0,5.783,3L4.1,1.994a.534.534,0,0,0-.65.08L1.948,3.579a.532.532,0,0,0-.08.65L2.907,5.964a6.859,6.859,0,0,0-.419,1.026L.4,7.5A.532.532,0,0,0,0,8.02v2.129a.532.532,0,0,0,.4.516l2.085.513a6.865,6.865,0,0,0,.49,1.164L2.048,13.89a.532.532,0,0,0,.08.65l1.505,1.505a.534.534,0,0,0,.65.08l1.553-.93a6.858,6.858,0,0,0,1.155.486L7.5,17.765a.532.532,0,0,0,.516.4h2.129a.532.532,0,0,0,.516-.4l.512-2.083a6.761,6.761,0,0,0,1.181-.5l1.577.946a.532.532,0,0,0,.65-.08L16.09,14.54a.532.532,0,0,0,.08-.65L15.214,12.3a6.816,6.816,0,0,0,.467-1.119l2.084-.513a.532.532,0,0,0,.4-.516V8.02A.532.532,0,0,0,17.765,7.5ZM9.084,12.81A3.726,3.726,0,1,1,12.81,9.084,3.73,3.73,0,0,1,9.084,12.81Z"/></svg>