<svg xmlns="http://www.w3.org/2000/svg" width="19.792" height="19.161" viewBox="0 0 19.792 19.161"><defs><style>.a{fill:#fff;}</style></defs><g transform="translate(0 -4.89)"><path class="a" d="M19.544,14.239a.944.944,0,0,0-.077-1.35l-8.845-7.74a1.1,1.1,0,0,0-1.438.017L.308,13.3A.938.938,0,0,0,.265,14.65l.223.232a.97.97,0,0,0,1.332.1l.663-.594v8.7a.965.965,0,0,0,.965.965h3.46a.965.965,0,0,0,.965-.965V17h4.413v6.084a.912.912,0,0,0,.907.965H16.86a.965.965,0,0,0,.965-.965V14.512l.409.359c.226.2.7.039,1.058-.356Z" transform="translate(0 0)"/></g></svg>