<svg xmlns="http://www.w3.org/2000/svg" width="12.824" height="12.415" viewBox="0 0 12.824 12.415"><defs><style>.a{fill:#605abc;}</style></defs><g transform="translate(0 -4.89)"><path class="a" d="M12.663,10.948a.611.611,0,0,0-.05-.875L6.882,5.058a.714.714,0,0,0-.932.011L.2,10.34a.608.608,0,0,0-.028.874l.144.15a.629.629,0,0,0,.863.066l.43-.385V16.68a.625.625,0,0,0,.626.626H4.476A.625.625,0,0,0,5.1,16.68V12.738H7.961V16.68a.591.591,0,0,0,.588.625h2.376a.625.625,0,0,0,.626-.626V11.125l.265.233c.146.128.453.025.686-.23Z" transform="translate(0 0)"/></g></svg>