<svg xmlns="http://www.w3.org/2000/svg" width="17.047" height="20.457" viewBox="0 0 17.047 20.457"><defs><style>.a{fill:#fff;}</style></defs><g transform="translate(-42.675)"><g transform="translate(42.675)"><path class="a" d="M59.661,17.254,58.2,14.815a7.246,7.246,0,0,1-1.033-3.728V8.95A5.974,5.974,0,0,0,52.9,3.235V1.7a1.7,1.7,0,0,0-3.409,0v1.53A5.974,5.974,0,0,0,45.232,8.95v2.137A7.251,7.251,0,0,1,44.2,14.814l-1.464,2.439a.427.427,0,0,0,.365.646H59.3a.426.426,0,0,0,.366-.645Z" transform="translate(-42.675)"/></g><g transform="translate(48.514 18.752)"><path class="a" d="M188.815,469.333a2.965,2.965,0,0,0,5.368,0Z" transform="translate(-188.815 -469.333)"/></g></g></svg>